<svg viewBox="0 0 1000 966" xmlns="http://www.w3.org/2000/svg" xml:space="preserve" style="fill-rule:evenodd;clip-rule:evenodd;stroke-linejoin:round;stroke-miterlimit:2"><path d="M579.547 172.545c-6.839 0-13.189 1.465-19.05 3.419 12.456 8.304 19.294 19.294 22.713 31.75.245 1.71.733 2.931.978 4.641.245 1.465.488 2.93.488 4.396.977 21.492-5.618 24.179-10.258 36.879-7.083 16.363-5.129 33.948 3.419 48.113.733 1.71 1.71 3.664 2.931 5.373-9.281-61.79 42.252-71.071 51.777-90.365.733-16.852-13.188-28.087-24.179-35.902-10.502-6.35-20.027-8.304-28.819-8.304Zm77.666 13.921c-.978 5.617-.245 4.152-.489 7.083-.244 1.954-.244 4.396-.488 6.35-.488 1.954-.977 3.907-1.709 5.861-.488 1.954-1.221 3.908-1.954 5.862-.977 1.954-1.71 3.663-2.687 5.617-.732.977-1.221 1.954-1.954 2.931l-1.465 2.198c-1.221 1.71-2.442 3.419-3.663 4.885-1.466 1.465-2.687 3.175-4.397 4.396v.244c-1.465 1.222-2.93 2.687-4.64 3.908-5.129 3.908-10.99 6.839-16.363 10.502-1.71 1.221-3.42 2.198-4.885 3.664a35.67 35.67 0 0 0-4.64 3.907c-1.71 1.466-2.931 2.931-4.397 4.641-1.221 1.465-2.686 3.175-3.663 4.884-1.221 1.71-2.442 3.42-3.419 5.129-.978 1.954-1.71 3.664-2.687 5.617-.733 1.954-1.465 3.664-1.954 5.618-.732 2.198-1.221 4.152-1.709 6.106-.245.977-.245 2.198-.488 3.175-.245.977-.245 1.953-.489 2.93 0 1.954-.244 4.152-.244 6.106 0 1.466 0 2.931.244 4.396 0 1.954.245 3.908.733 6.106.245 1.954.733 3.908 1.221 5.862.733 1.953 1.222 3.907 1.954 5.861.488 1.221 1.221 2.443 1.71 3.419l-56.173-21.736c-9.526-2.687-18.806-5.129-28.331-7.327l-15.387-3.664a453.859 453.859 0 0 0-44.45-6.594c-.488 0-.733-.244-1.221-.244a436.498 436.498 0 0 0-43.718-2.198c-10.746 0-21.492.488-31.994 1.221-14.898.977-29.796 2.931-44.694 5.373-3.664.488-7.327 1.221-10.991 1.954-7.571 1.465-14.898 3.175-21.981 4.884-3.663.978-7.327 1.954-10.99 2.931-3.663 1.465-7.083 3.175-10.502 4.64l-8.06 3.664c-.488.245-.977.245-1.221.488-2.442 1.221-4.64 2.198-6.838 3.419-.733.245-1.221.488-1.71.733-2.686 1.221-5.373 2.687-7.571 3.908-1.71.732-3.419 1.709-4.885 2.442-.732.488-1.709.977-2.198 1.221-2.198 1.221-4.396 2.442-6.35 3.664-2.198 1.221-4.152 2.442-5.861 3.663-1.71 1.221-3.42 2.198-4.885 3.419-.245.245-.488.245-.733.488-1.465.978-3.175 2.198-4.64 3.42l-.488.488a5219.8 5219.8 0 0 1-3.664 2.93c-.488.245-.977.733-1.465.978-1.221.977-2.442 2.198-3.663 3.175-.245.488-.733.733-.978.977-1.465 1.466-2.931 2.687-4.396 4.152-.245 0-.245.245-.488.488-1.465 1.221-2.931 2.687-4.396 4.152-.245.245-.245.488-.488.488-1.221 1.221-2.443 2.443-3.664 3.908-.488.488-1.221.977-1.709 1.465-1.221 1.466-2.687 2.931-4.152 4.396-.245.489-.733.733-.978 1.222-1.953 1.954-3.663 3.907-5.617 5.861l-.733.733c-3.907 4.152-8.059 8.304-12.455 11.967-4.397 3.908-9.037 7.571-13.677 10.746a184.574 184.574 0 0 1-14.654 9.281 148.755 148.755 0 0 1-15.387 7.327c-5.129 2.198-10.502 4.152-15.875 5.862-10.258 2.198-20.76 6.35-29.796 7.082-1.954 0-4.152.488-6.106.733-2.198.488-4.152.977-6.106 1.465l-5.861 2.198c-1.954.733-3.908 1.71-5.862 2.687-1.709 1.221-3.663 2.198-5.373 3.419a39.974 39.974 0 0 0-4.885 4.152c-1.709 1.221-3.419 2.931-4.884 4.396-1.466 1.71-2.931 3.175-4.152 4.885-1.221 1.954-2.687 3.664-3.664 5.617-1.221 1.71-2.442 3.664-3.419 5.618-.977 2.198-1.954 4.152-2.686 6.35-.733 1.954-1.466 4.152-2.198 6.35-.489 1.954-.978 3.907-1.222 5.861 0 .245-.244.488-.244.733-.488 2.198-.488 5.129-.733 6.594-.245 1.71-.488 3.175-.488 4.885 0 .977 0 2.198.245 3.175.244 1.71.488 3.175.977 4.64.488 1.466.977 2.931 1.709 4.396v.245c.733 1.466 1.71 2.931 2.687 4.396.977 1.466 1.954 2.931 3.175 4.396 1.221 1.222 2.687 2.687 4.152 3.908 1.465 1.466 2.931 2.687 4.64 3.908 5.862 5.129 7.327 6.838 14.899 10.746 1.221.733 2.442 1.221 3.907 1.954.245 0 .488.244.733.244 0 .488 0 .733.245 1.222.244 1.954.732 3.907 1.221 5.861.488 2.198 1.221 4.152 1.954 5.862.732 1.465 1.221 2.931 1.954 4.396.244.488.488.977.732 1.221.978 1.954 1.954 3.664 2.931 5.373l3.663 5.129c1.222 1.465 2.687 3.175 4.152 4.64 1.466 1.466 2.931 2.687 4.641 4.152 0 0 .244.245.488.245 1.465 1.221 2.931 2.443 4.396 3.419 1.71 1.222 3.419 2.198 5.373 3.175 1.71.978 3.664 1.954 5.617 2.687 1.466.733 3.175 1.221 4.885 1.71.245.245.488.245.977.488.978.245 2.198.488 3.175.732-.732 13.189-.977 25.645.978 30.041 2.198 4.885 12.944-10.014 23.69-27.11-1.465 16.852-2.442 36.635 0 42.497 2.687 6.105 17.341-12.945 30.041-33.949 173.16-40.053 331.178 79.62 347.785 248.628-3.175-26.377-35.658-41.031-50.556-37.367-7.327 18.073-19.782 41.275-39.809 55.684 1.709-16.119.977-32.727-2.443-48.846-5.373 22.469-15.875 43.473-30.284 61.546-23.202 1.71-46.404-9.525-58.616-26.377-.977-.732-1.221-2.198-1.954-3.175-.733-1.709-1.465-3.419-1.954-5.129-.732-1.709-1.221-3.419-1.465-5.128-.245-1.71-.245-3.42-.245-5.373v-3.664c.245-1.71.733-3.419 1.221-5.129.488-1.709.978-3.419 1.71-5.129.977-1.709 1.71-3.419 2.931-5.128 4.152-11.724 4.152-21.249-3.419-26.866-1.466-.977-2.931-1.71-4.641-2.442-.977-.245-2.198-.733-3.175-.978-.733-.244-1.221-.488-1.954-.732-1.709-.488-3.419-.978-5.129-1.221a18.566 18.566 0 0 0-5.128-.733c-1.71-.245-3.664-.488-5.374-.488-1.221 0-2.442.244-3.663.244-1.954 0-3.664.245-5.373.733-1.71.245-3.419.488-5.129.977-1.71.488-3.419.978-5.129 1.71-1.709.733-3.175 1.465-4.885 2.198-1.465.733-2.93 1.71-4.64 2.442-56.906 37.123-22.958 124.07 15.875 149.226-14.654 2.686-29.552 5.861-33.704 9.036l-.488.488c10.502 6.35 21.493 11.723 32.971 16.364 15.631 5.129 32.239 9.769 39.566 11.723v.245c20.271 4.152 40.787 5.617 61.546 4.396 108.195-7.571 196.851-89.878 212.97-198.316.488 2.198.978 4.152 1.466 6.35.732 4.396 1.709 9.036 2.198 13.677v.245c.488 2.198.732 4.396.977 6.35v.977c.245 2.198.488 4.396.488 6.35.245 2.686.488 5.373.488 8.06v3.907c0 1.222.245 2.687.245 3.908 0 1.465-.245 2.931-.245 4.396v3.419c0 1.71-.245 3.175-.245 4.885 0 .977 0 1.954-.244 3.175 0 1.71-.245 3.419-.245 5.373-.245.733-.245 1.466-.245 2.198-.244 1.954-.488 3.664-.733 5.618 0 .732 0 1.465-.244 2.198-.245 2.442-.733 4.64-.977 7.082v.49c-.488 2.198-.978 4.64-1.466 6.838v.733l-1.465 6.594c0 .245-.245.733-.245.977-.488 2.199-.977 4.397-1.709 6.595v.732c-.733 2.443-1.466 4.641-1.954 6.839-.245.244-.245.488-.245.488l-2.198 7.327c-.977 2.442-1.709 4.64-2.686 7.083-.977 2.442-1.71 4.884-2.687 7.082-.977 2.443-1.954 4.641-2.931 7.083h-.244c-.978 2.198-1.954 4.641-3.176 6.839-.244.732-.488 1.221-.732 1.709-.245.245-.245.488-.488.733-15.875 31.994-39.322 60.081-68.629 82.058-1.954 1.23-3.908 2.69-5.862 4.16-.488.48-1.221.73-1.71 1.22-1.709 1.22-3.419 2.44-5.373 3.66l.733 1.47h.245l10.257-1.47h.245c6.35-.98 12.7-2.2 19.05-3.42 1.71-.24 3.664-.73 5.373-1.22 1.221-.24 2.198-.49 3.419-.73 1.71-.25 3.42-.74 5.129-.98 1.466-.49 2.931-.73 4.396-1.22 24.424-5.86 48.114-13.92 70.827-23.448-38.832 52.998-90.854 95.738-151.667 123.828 28.086-1.96 56.173-6.6 83.283-14.41 98.425-29.07 181.219-95.25 230.798-184.397-10.013 56.418-32.482 110.147-65.698 157.037 23.691-15.63 45.427-33.7 65.21-54.21 54.708-57.155 90.61-129.692 102.821-207.602 8.304 38.589 10.747 78.398 7.083 117.72 176.336-245.942 14.654-500.919-52.998-568.083-.245-.488-.488-.733-.488-1.221-.245.245-.245.245-.245.488 0-.244 0-.244-.245-.488 0 2.931-.244 5.862-.488 8.792-.732 5.618-1.465 10.991-2.442 16.364-1.221 5.373-2.687 10.746-4.152 16.119-1.71 5.129-3.663 10.502-5.862 15.631-2.198 4.884-4.64 10.013-7.326 14.898-2.687 4.64-5.618 9.525-8.793 13.921-3.175 4.641-6.594 9.037-10.013 13.189-3.664 4.396-7.571 8.304-11.479 12.211-2.442 2.198-4.641 4.152-7.083 6.106-1.954 1.71-3.663 3.175-5.617 4.885-4.396 3.419-8.793 6.594-13.677 9.525-4.641 2.93-9.525 5.861-14.41 8.304-5.129 2.442-10.258 4.64-15.386 6.838-5.129 1.954-10.502 3.664-15.876 5.129-5.373 1.465-10.99 2.687-16.363 3.663-5.617.978-11.235 1.466-16.608 1.954-3.907.245-7.815.488-11.723.488-5.617 0-11.234-.488-16.608-.977-5.617-.488-11.234-1.221-16.607-2.442-5.618-.978-10.991-2.443-16.364-4.152h-.244c5.373-.488 10.746-.978 16.119-1.954a176.765 176.765 0 0 0 16.363-3.664c5.374-1.465 10.747-3.175 15.875-5.128 5.374-1.954 10.502-4.397 15.387-6.839 5.129-2.442 9.769-5.129 14.654-8.06 4.64-3.175 9.281-6.35 13.677-9.769a133.518 133.518 0 0 0 12.456-10.99c4.152-3.664 7.815-7.816 11.479-11.968a241.568 241.568 0 0 0 10.257-13.188c.488-.733.978-1.71 1.466-2.442 2.442-3.908 4.884-7.816 7.082-11.724 2.687-4.884 5.129-9.769 7.327-14.898 2.198-5.128 4.152-10.257 5.862-15.63 1.709-5.129 2.931-10.502 4.152-15.875.977-5.618 1.954-10.991 2.442-16.364.488-5.617.977-11.235.977-16.608 0-3.907-.244-7.815-.488-11.723-.488-5.617-1.221-10.99-1.953-16.363a177.365 177.365 0 0 0-3.664-16.364c-1.709-5.129-3.419-10.502-5.373-15.631-1.954-5.128-4.396-10.257-6.839-15.142-2.686-4.885-5.373-9.769-8.303-14.41-3.175-4.64-6.35-9.036-9.77-13.432-3.663-4.152-7.327-8.304-11.234-12.456-1.954-1.954-4.152-4.152-6.35-6.106a450.052 450.052 0 0 0-33.948-23.935 45.585 45.585 0 0 0-4.885-2.442c-8.06-5.129-15.631-7.815-23.202-10.258v-.001Z" style="fill:#e0234e" transform="translate(0 -156.52)"/></svg>