<svg viewBox="0 0 40 40" xmlns="http://www.w3.org/2000/svg" xml:space="preserve" style="fill-rule:evenodd;clip-rule:evenodd;stroke-linejoin:round;stroke-miterlimit:2"><path d="m28.589 14.135-.014-.006c-.008-.003-.016-.006-.023-.013a.11.11 0 0 1-.028-.093l.773-4.726 3.625 3.626-3.77 1.604a.092.092 0 0 1-.033.006h-.015a.104.104 0 0 1-.02-.017 1.72 1.72 0 0 0-.495-.381Zm5.258-.288 3.876 3.876c.805.806 1.208 1.208 1.355 1.674.022.069.04.138.054.209l-9.263-3.923-.015-.006c-.037-.015-.08-.032-.08-.07 0-.038.044-.056.081-.071l.012-.005 3.98-1.684Zm5.127 7.003c-.2.376-.59.766-1.25 1.427l-4.37 4.369-5.652-1.177-.03-.006c-.05-.008-.103-.017-.103-.062a1.705 1.705 0 0 0-.655-1.193c-.023-.023-.017-.059-.01-.092 0-.005 0-.01.002-.014l1.063-6.526.004-.022c.006-.05.015-.108.06-.108a1.73 1.73 0 0 0 1.16-.665c.009-.01.015-.021.027-.027.032-.015.07 0 .103.014l9.65 4.082h.001Zm-6.625 6.801-7.186 7.186 1.23-7.56.002-.01a.136.136 0 0 1 .006-.029c.01-.024.036-.034.061-.044l.012-.005c.269-.115.508-.292.695-.517.024-.028.053-.055.09-.06a.07.07 0 0 1 .029 0l5.06 1.04.001-.001Zm-8.707 8.707-.81.81-8.955-12.942-.01-.014c-.014-.019-.029-.038-.026-.06.001-.016.011-.03.022-.042l.01-.013c.027-.04.05-.08.075-.123l.02-.035.003-.003c.014-.024.027-.047.051-.06.021-.01.05-.006.073-.001l9.921 2.046a.163.163 0 0 1 .076.033c.013.013.016.027.019.043.14.53.521.966 1.028 1.175.028.014.016.045.003.078a.238.238 0 0 0-.015.045c-.125.76-1.197 7.298-1.485 9.063Zm-1.692 1.691c-.597.591-.949.904-1.347 1.03a2.001 2.001 0 0 1-1.206 0c-.466-.148-.869-.55-1.674-1.356L8.73 28.73l2.349-3.643a.15.15 0 0 1 .04-.047c.025-.018.061-.01.091 0a2.434 2.434 0 0 0 1.638-.083c.027-.01.054-.017.075.002.011.01.02.02.028.032L21.95 38.05v-.001ZM7.863 27.863 5.8 25.8l4.074-1.738a.075.075 0 0 1 .033-.007c.034 0 .054.034.072.065.041.063.084.124.13.184l.013.016c.012.017.004.034-.008.05l-2.25 3.493h-.001Zm-2.976-2.976-2.61-2.61c-.444-.444-.766-.766-.99-1.043l7.936 1.646.03.005c.049.008.103.017.103.063 0 .05-.059.073-.109.092l-.023.01-4.337 1.837ZM.831 19.892a1.99 1.99 0 0 1 .09-.495c.148-.466.55-.868 1.356-1.674l3.34-3.34c1.538 2.232 3.08 4.461 4.626 6.687.027.036.057.076.026.106a2.776 2.776 0 0 0-.395.528.151.151 0 0 1-.05.062c-.013.008-.027.005-.042.002H9.78L.831 19.891v.001Zm5.68-6.403 4.491-4.491c.422.185 1.958.834 3.332 1.414 1.04.44 1.988.84 2.286.97.03.012.057.024.07.054.008.018.004.041 0 .06a2.006 2.006 0 0 0 .523 1.828c.03.03 0 .073-.026.11l-.014.021-4.56 7.063a.138.138 0 0 1-.043.05c-.024.015-.058.008-.086.001a2.314 2.314 0 0 0-.543-.074c-.164 0-.342.03-.522.063h-.001c-.02.003-.038.007-.054-.005a.199.199 0 0 1-.045-.051l-4.808-7.013Zm5.398-5.398 5.814-5.814c.805-.805 1.208-1.208 1.674-1.355a2.001 2.001 0 0 1 1.206 0c.466.147.869.55 1.674 1.355l1.26 1.26-4.135 6.404a.146.146 0 0 1-.041.048c-.025.017-.06.01-.09 0a2.098 2.098 0 0 0-1.92.37c-.027.028-.067.012-.101-.003-.54-.235-4.74-2.01-5.341-2.265Zm12.506-3.676 3.818 3.818-.92 5.698v.015a.16.16 0 0 1-.008.038c-.01.02-.03.024-.05.03a1.839 1.839 0 0 0-.568.29c-.011.012-.022.023-.04.025a.125.125 0 0 1-.043-.007l-5.818-2.472-.011-.005c-.037-.015-.081-.033-.081-.071a2.194 2.194 0 0 0-.31-.915c-.028-.046-.059-.094-.035-.141l4.066-6.303Zm-3.932 8.606 5.454 2.31c.03.014.063.027.076.058a.11.11 0 0 1 0 .057c-.016.08-.03.171-.03.263v.153c0 .038-.039.054-.075.069l-.011.004c-.864.369-12.13 5.173-12.147 5.173-.017 0-.035 0-.052-.017-.03-.03 0-.072.027-.11l.014-.02 4.482-6.94.008-.012c.026-.042.056-.089.104-.089l.045.007c.102.014.192.027.283.027.68 0 1.31-.331 1.69-.897a.164.164 0 0 1 .034-.04c.027-.02.067-.01.098.004Zm-6.246 9.185 12.28-5.237s.018 0 .035.017c.067.067.124.112.179.154l.027.017c.025.014.05.03.052.056 0 .01 0 .016-.002.025L25.756 23.7l-.004.026c-.007.05-.014.107-.061.107a1.73 1.73 0 0 0-1.373.847l-.005.008c-.014.023-.027.045-.05.057-.021.01-.048.006-.07.001l-9.793-2.02c-.01-.002-.152-.519-.163-.52Z" style="fill:url(#_Radial1);fill-rule:nonzero"/><defs><radialGradient id="_Radial1" cx="0" cy="0" r="1" gradientUnits="userSpaceOnUse" gradientTransform="matrix(0 38.3852 -44.1713 0 19.982 .808)"><stop offset="0" style="stop-color:#20c6b7;stop-opacity:1"/><stop offset="1" style="stop-color:#4d9abf;stop-opacity:1"/></radialGradient></defs></svg>