<svg viewBox="0 0 590 362" xmlns="http://www.w3.org/2000/svg" xml:space="preserve" style="fill-rule:evenodd;clip-rule:evenodd;stroke-linejoin:round;stroke-miterlimit:2"><path d="M291.53 361.239c-1.947 0-3.88-.51-5.587-1.493l-17.783-10.528c-2.656-1.485-1.36-2.011-.484-2.313 3.542-1.24 4.26-1.52 8.04-3.667.398-.227.918-.147 1.324.093l13.662 8.107c.493.267 1.193.267 1.65 0l53.267-30.747c.493-.28.813-.853.813-1.44v-61.466c0-.613-.32-1.16-.824-1.467l-53.245-30.72a1.64 1.64 0 0 0-1.64 0l-53.235 30.72a1.7 1.7 0 0 0-.844 1.454v61.466c0 .587.32 1.147.827 1.427l14.587 8.426c7.92 3.96 12.76-.706 12.76-5.4v-60.666c0-.867.68-1.533 1.546-1.533h6.747c.84 0 1.533.666 1.533 1.533v60.693c0 10.56-5.76 16.627-15.773 16.627-3.08 0-5.507 0-12.28-3.334l-13.973-8.053c-3.454-2-5.587-5.733-5.587-9.72v-61.466c0-4 2.133-7.734 5.587-9.707l53.32-30.76c3.373-1.907 7.853-1.907 11.199 0l53.254 30.773c3.44 1.987 5.586 5.707 5.586 9.707v61.466a11.27 11.27 0 0 1-5.586 9.707l-53.254 30.76a11.187 11.187 0 0 1-5.613 1.493" style="fill:#689f63;fill-rule:nonzero"/><path d="M307.983 318.885c-23.307 0-28.193-10.699-28.193-19.672 0-.854.688-1.534 1.542-1.534h6.88c.76 0 1.4.554 1.52 1.304 1.04 7.011 4.134 10.547 18.227 10.547 11.226 0 16-2.536 16-8.489 0-3.427-1.36-5.974-18.8-7.68-14.587-1.44-23.6-4.654-23.6-16.32 0-10.747 9.067-17.147 24.253-17.147 17.053 0 25.507 5.92 26.573 18.64.04.44-.12.867-.413 1.187a1.588 1.588 0 0 1-1.133.493h-6.92a1.53 1.53 0 0 1-1.494-1.2c-1.666-7.373-5.693-9.733-16.64-9.733-12.253 0-13.679 4.266-13.679 7.466 0 3.88 1.68 5.014 18.213 7.2 16.373 2.174 24.146 5.24 24.146 16.747 0 11.6-9.68 18.253-26.56 18.253m64.88-65.186h1.787c1.467 0 1.747-1.027 1.747-1.627 0-1.573-1.08-1.573-1.68-1.573h-1.84l-.014 3.2Zm-2.173-5.04h3.96c1.36 0 4.027 0 4.027 3.04 0 2.12-1.36 2.56-2.174 2.827 1.587.106 1.694 1.146 1.907 2.613.107.92.28 2.507.6 3.04h-2.44c-.067-.533-.44-3.467-.44-3.627-.16-.653-.387-.973-1.2-.973h-2.013v4.613h-2.227v-11.533Zm-4.76 5.733c0 4.774 3.853 8.64 8.587 8.64 4.773 0 8.626-3.946 8.626-8.64 0-4.786-3.906-8.586-8.64-8.586-4.666 0-8.586 3.746-8.586 8.573m18.88.04c0 5.653-4.627 10.267-10.267 10.267-5.6 0-10.267-4.56-10.267-10.267 0-5.813 4.774-10.267 10.267-10.267 5.533 0 10.253 4.467 10.253 10.267" style="fill:#689f63;fill-rule:nonzero"/><path d="M126.582 120.733a6.822 6.822 0 0 0-3.411-5.927L66.697 82.313a6.599 6.599 0 0 0-3.104-.893h-.584a6.707 6.707 0 0 0-3.12.893L3.417 114.806a6.873 6.873 0 0 0-3.416 5.934l.124 87.52c0 1.213.626 2.346 1.693 2.946 1.04.64 2.347.64 3.387 0l33.573-19.226c2.12-1.262 3.413-3.491 3.413-5.92v-40.887a6.803 6.803 0 0 1 3.407-5.907l14.293-8.232a6.787 6.787 0 0 1 3.414-.917c1.168 0 2.36.301 3.392.916l14.286 8.229a6.805 6.805 0 0 1 3.414 5.907v40.884c0 2.427 1.31 4.667 3.42 5.92l33.551 19.213a3.333 3.333 0 0 0 3.414 0 3.424 3.424 0 0 0 1.69-2.946l.11-87.507Zm266.49 45.568c0 .609-.324 1.173-.853 1.475l-19.398 11.181a1.707 1.707 0 0 1-1.702 0l-19.4-11.181a1.69 1.69 0 0 1-.854-1.475v-22.395c0-.61.32-1.173.84-1.48l19.387-11.2a1.726 1.726 0 0 1 1.72 0l19.4 11.2c.533.307.853.87.853 1.48l.007 22.395ZM398.312.432a3.426 3.426 0 0 0-3.392.036 3.421 3.421 0 0 0-1.683 2.947v86.666a2.385 2.385 0 0 1-3.578 2.067L375.512 84a6.809 6.809 0 0 0-6.816 0l-56.493 32.604a6.806 6.806 0 0 0-3.414 5.893v65.227c0 2.44 1.303 4.68 3.414 5.906l56.493 32.627a6.851 6.851 0 0 0 6.823 0l56.493-32.64a6.837 6.837 0 0 0 3.413-5.907V25.151a6.835 6.835 0 0 0-3.506-5.96L398.312.432Zm188.124 142.885a6.823 6.823 0 0 0 3.39-5.896v-15.808a6.824 6.824 0 0 0-3.396-5.9l-56.133-32.586a6.815 6.815 0 0 0-6.84 0l-56.48 32.599a6.81 6.81 0 0 0-3.413 5.907v65.2c0 2.453 1.32 4.72 3.44 5.933l56.12 31.987a6.802 6.802 0 0 0 6.693.04l33.947-18.867a3.415 3.415 0 0 0 1.746-2.96 3.41 3.41 0 0 0-1.72-2.973l-56.826-32.613a3.385 3.385 0 0 1-1.72-2.947V143.98c0-1.222.64-2.347 1.706-2.955l17.68-10.2a3.373 3.373 0 0 1 3.4 0l17.694 10.2a3.4 3.4 0 0 1 1.706 2.947v16.08a3.44 3.44 0 0 0 1.707 2.96c1.053.6 2.36.6 3.413-.014l33.886-19.681Z" style="fill:#333"/><path d="M526.05 140.266c.4-.236.902-.236 1.307 0l10.84 6.254c.405.234.653.666.653 1.133v12.52c0 .467-.248.899-.653 1.133l-10.84 6.254a1.295 1.295 0 0 1-1.307 0l-10.833-6.254a1.304 1.304 0 0 1-.667-1.133v-12.52c0-.467.24-.899.654-1.133l10.846-6.254Z" style="fill:#689f63"/><g transform="translate(-104.408 -218.688)"><clipPath id="_clip1"><path d="m318.707 302.139-56.173 32.423a6.78 6.78 0 0 0-3.395 5.875v64.89a6.778 6.778 0 0 0 3.395 5.875l56.177 32.448a6.802 6.802 0 0 0 6.786 0l56.168-32.448a6.793 6.793 0 0 0 3.387-5.875v-64.89a6.778 6.778 0 0 0-3.4-5.875l-56.16-32.423a6.83 6.83 0 0 0-6.8 0"/></clipPath><g clip-path="url(#_clip1)"><path d="M441.817 329.057 283.531 251.47l-81.16 165.565 158.282 77.591 81.164-165.569Z" style="fill:url(#_Linear2);fill-rule:nonzero"/></g></g><g transform="translate(-104.408 -218.688)"><clipPath id="_clip3"><path d="M260.531 409.447a6.776 6.776 0 0 0 2 1.755l48.186 27.833 8.027 4.614a6.81 6.81 0 0 0 3.912.886 6.93 6.93 0 0 0 1.333-.244l59.246-108.48a6.742 6.742 0 0 0-1.579-1.253l-36.781-21.24-19.443-11.187a7.094 7.094 0 0 0-1.76-.706l-63.141 108.022Z"/></clipPath><g clip-path="url(#_clip3)"><path d="m192.094 352.005 111.766 151.27 147.813-109.208L339.9 242.801 192.094 352.005Z" style="fill:url(#_Linear4);fill-rule:nonzero"/></g></g><g transform="translate(-104.408 -218.688)"><clipPath id="_clip5"><path d="M321.421 301.27a6.857 6.857 0 0 0-2.713.869l-56.013 32.33 60.4 110.013c.84-.12 1.666-.4 2.413-.832l56.173-32.448a6.805 6.805 0 0 0 3.28-4.635l-61.573-105.186a7.002 7.002 0 0 0-1.373-.136c-.187 0-.374.009-.56.026"/></clipPath><g clip-path="url(#_clip5)"><path style="fill:url(#_Linear6);fill-rule:nonzero" d="M262.694 301.245h122.244v143.24H262.694z"/></g></g><defs><linearGradient id="_Linear2" x1="0" y1="0" x2="1" y2="0" gradientUnits="userSpaceOnUse" gradientTransform="scale(-184.375) rotate(-63.886 92.344 -58.185)"><stop offset="0" style="stop-color:#3e863d;stop-opacity:1"/><stop offset=".3" style="stop-color:#3e863d;stop-opacity:1"/><stop offset=".5" style="stop-color:#55934f;stop-opacity:1"/><stop offset=".8" style="stop-color:#5aad45;stop-opacity:1"/><stop offset="1" style="stop-color:#5aad45;stop-opacity:1"/></linearGradient><linearGradient id="_Linear4" x1="0" y1="0" x2="1" y2="0" gradientUnits="userSpaceOnUse" gradientTransform="scale(183.793) rotate(-36.46 270.538 -88.606)"><stop offset="0" style="stop-color:#3e863d;stop-opacity:1"/><stop offset=".57" style="stop-color:#3e863d;stop-opacity:1"/><stop offset=".72" style="stop-color:#619857;stop-opacity:1"/><stop offset="1" style="stop-color:#76ac64;stop-opacity:1"/></linearGradient><linearGradient id="_Linear6" x1="0" y1="0" x2="1" y2="0" gradientUnits="userSpaceOnUse" gradientTransform="translate(262.803 29719.2) scale(122.226)"><stop offset="0" style="stop-color:#6bbf47;stop-opacity:1"/><stop offset=".16" style="stop-color:#6bbf47;stop-opacity:1"/><stop offset=".38" style="stop-color:#79b461;stop-opacity:1"/><stop offset=".47" style="stop-color:#75ac64;stop-opacity:1"/><stop offset=".7" style="stop-color:#659e5a;stop-opacity:1"/><stop offset=".9" style="stop-color:#3e863d;stop-opacity:1"/><stop offset="1" style="stop-color:#3e863d;stop-opacity:1"/></linearGradient></defs></svg>