<svg viewBox="0 0 148 178" xmlns="http://www.w3.org/2000/svg" xml:space="preserve" style="fill-rule:evenodd;clip-rule:evenodd;stroke-linejoin:round;stroke-miterlimit:2"><g transform="translate(-.024) scale(1.584)"><g id="a"><path d="M87.269 14.819C76.869-.066 56.328-4.478 41.477 4.984L15.4 21.608A29.937 29.937 0 0 0 1.876 41.651a31.515 31.515 0 0 0 3.108 20.231A30.005 30.005 0 0 0 .507 73.065a31.902 31.902 0 0 0 5.448 24.116c10.4 14.887 30.942 19.3 45.791 9.835l26.083-16.624a29.928 29.928 0 0 0 13.518-20.043 31.528 31.528 0 0 0-3.1-20.232 30.035 30.035 0 0 0 4.474-11.182 31.889 31.889 0 0 0-5.447-24.116" style="fill:#ff3e00;fill-rule:nonzero"/><path d="M38.929 98.582c-8.388 2.18-17.297-1.122-22.237-8.243a19.182 19.182 0 0 1-3.276-14.5c.151-.825.359-1.639.623-2.435l.491-1.5 1.337.981a33.646 33.646 0 0 0 10.2 5.1l.969.294-.089.968A5.846 5.846 0 0 0 28 83.122a6.25 6.25 0 0 0 6.7 2.485 5.752 5.752 0 0 0 1.6-.7l26.082-16.626a5.434 5.434 0 0 0 2.451-3.631 5.796 5.796 0 0 0-.988-4.371 6.255 6.255 0 0 0-6.7-2.487 5.781 5.781 0 0 0-1.6.7l-9.953 6.345a19.046 19.046 0 0 1-5.3 2.326c-8.388 2.181-17.297-1.122-22.237-8.243a19.178 19.178 0 0 1-3.277-14.5 18 18 0 0 1 8.137-12.05L49 15.747a19.025 19.025 0 0 1 5.3-2.329c8.388-2.18 17.297 1.122 22.237 8.243a19.186 19.186 0 0 1 3.277 14.5 18.42 18.42 0 0 1-.624 2.435l-.491 1.5-1.336-.979a33.634 33.634 0 0 0-10.2-5.1l-.97-.294.09-.968a5.86 5.86 0 0 0-1.052-3.878 6.254 6.254 0 0 0-6.7-2.485 5.752 5.752 0 0 0-1.6.7L30.842 43.719a5.42 5.42 0 0 0-2.449 3.63 5.793 5.793 0 0 0 .986 4.372 6.257 6.257 0 0 0 6.7 2.487 5.781 5.781 0 0 0 1.6-.7l9.952-6.342a18.98 18.98 0 0 1 5.3-2.328c8.388-2.18 17.296 1.122 22.236 8.243a19.178 19.178 0 0 1 3.277 14.5 18.01 18.01 0 0 1-8.13 12.054L44.229 96.253a19.012 19.012 0 0 1-5.3 2.329" style="fill:#fff;fill-rule:nonzero"/></g></g></svg>